<svg width="144" height="41" viewBox="0 0 144 41" fill="none" xmlns="http://www.w3.org/2000/svg">
<g id="Logo">
<g id="Heading">
<path id="Vector" d="M131.703 13.5908H134.159V17.3596L134.009 19.0283H134.159C134.422 18.5908 134.797 18.2346 135.284 17.9596C135.784 17.6721 136.341 17.5283 136.953 17.5283C138.141 17.5283 139.016 17.8783 139.578 18.5783C140.153 19.2783 140.441 20.2346 140.441 21.4471V27.0158H137.984V21.7471C137.984 21.1096 137.834 20.6283 137.534 20.3033C137.234 19.9658 136.816 19.7971 136.278 19.7971C135.941 19.7971 135.641 19.8721 135.378 20.0221C135.116 20.1596 134.891 20.3533 134.703 20.6033C134.528 20.8533 134.391 21.1471 134.291 21.4846C134.203 21.8096 134.159 22.1596 134.159 22.5346V27.0158H131.703V13.5908Z" fill="white"/>
<path id="Vector_2" d="M130.766 24.6721C130.366 25.4471 129.804 26.0846 129.079 26.5846C128.366 27.0721 127.472 27.3158 126.397 27.3158C125.685 27.3158 125.029 27.1971 124.429 26.9596C123.841 26.7096 123.329 26.3658 122.891 25.9283C122.466 25.4908 122.129 24.9783 121.879 24.3908C121.641 23.7908 121.522 23.1346 121.522 22.4221C121.522 21.7096 121.641 21.0533 121.879 20.4533C122.129 19.8533 122.466 19.3408 122.891 18.9158C123.329 18.4783 123.841 18.1408 124.429 17.9033C125.029 17.6533 125.685 17.5283 126.397 17.5283C127.46 17.5283 128.354 17.7721 129.079 18.2596C129.804 18.7471 130.335 19.3783 130.672 20.1533L128.422 21.0908C128.21 20.6658 127.935 20.3471 127.597 20.1346C127.272 19.9096 126.86 19.7971 126.36 19.7971C126.035 19.7971 125.729 19.8596 125.441 19.9846C125.154 20.1096 124.897 20.2846 124.672 20.5096C124.46 20.7346 124.291 21.0096 124.166 21.3346C124.041 21.6596 123.979 22.0221 123.979 22.4221C123.979 22.8221 124.041 23.1846 124.166 23.5096C124.291 23.8346 124.46 24.1096 124.672 24.3346C124.897 24.5596 125.154 24.7346 125.441 24.8596C125.729 24.9846 126.035 25.0471 126.36 25.0471C126.872 25.0471 127.304 24.9346 127.654 24.7096C128.016 24.4721 128.304 24.1346 128.516 23.6971L130.766 24.6721Z" fill="white"/>
<path id="Vector_3" d="M120.8 24.8033C120.375 25.5533 119.8 26.1596 119.075 26.6221C118.363 27.0846 117.488 27.3158 116.45 27.3158C115.75 27.3158 115.1 27.1971 114.5 26.9596C113.913 26.7096 113.4 26.3658 112.963 25.9283C112.525 25.4908 112.181 24.9783 111.931 24.3908C111.694 23.7908 111.575 23.1346 111.575 22.4221C111.575 21.7596 111.694 21.1346 111.931 20.5471C112.169 19.9471 112.5 19.4283 112.925 18.9908C113.35 18.5408 113.85 18.1846 114.425 17.9221C115.013 17.6596 115.656 17.5283 116.356 17.5283C117.094 17.5283 117.75 17.6533 118.325 17.9033C118.9 18.1408 119.381 18.4783 119.769 18.9158C120.156 19.3408 120.45 19.8471 120.65 20.4346C120.85 21.0221 120.95 21.6596 120.95 22.3471C120.95 22.4346 120.95 22.5096 120.95 22.5721C120.938 22.6471 120.931 22.7158 120.931 22.7783C120.919 22.8408 120.913 22.9096 120.913 22.9846H113.994C114.044 23.3596 114.144 23.6846 114.294 23.9596C114.456 24.2221 114.65 24.4471 114.875 24.6346C115.113 24.8096 115.369 24.9408 115.644 25.0283C115.919 25.1033 116.2 25.1408 116.488 25.1408C117.05 25.1408 117.513 25.0158 117.875 24.7658C118.25 24.5033 118.544 24.1783 118.756 23.7908L120.8 24.8033ZM118.569 21.2408C118.556 21.0783 118.5 20.8971 118.4 20.6971C118.313 20.4971 118.175 20.3096 117.988 20.1346C117.813 19.9596 117.588 19.8158 117.313 19.7033C117.05 19.5908 116.731 19.5346 116.356 19.5346C115.831 19.5346 115.369 19.6846 114.969 19.9846C114.569 20.2846 114.288 20.7033 114.125 21.2408H118.569Z" fill="white"/>
<path id="Vector_4" d="M106.383 27.0158V15.9908H102.633V13.5908H112.664V15.9908H108.914V27.0158H106.383Z" fill="white"/>
<path id="Vector_5" d="M102.077 24.8033C101.652 25.5533 101.077 26.1596 100.352 26.6221C99.6391 27.0846 98.7641 27.3158 97.7266 27.3158C97.0266 27.3158 96.3766 27.1971 95.7766 26.9596C95.1891 26.7096 94.6766 26.3658 94.2391 25.9283C93.8016 25.4908 93.4578 24.9783 93.2078 24.3908C92.9703 23.7908 92.8516 23.1346 92.8516 22.4221C92.8516 21.7596 92.9703 21.1346 93.2078 20.5471C93.4453 19.9471 93.7766 19.4283 94.2016 18.9908C94.6266 18.5408 95.1266 18.1846 95.7016 17.9221C96.2891 17.6596 96.9328 17.5283 97.6328 17.5283C98.3703 17.5283 99.0266 17.6533 99.6016 17.9033C100.177 18.1408 100.658 18.4783 101.045 18.9158C101.433 19.3408 101.727 19.8471 101.927 20.4346C102.127 21.0221 102.227 21.6596 102.227 22.3471C102.227 22.4346 102.227 22.5096 102.227 22.5721C102.214 22.6471 102.208 22.7158 102.208 22.7783C102.195 22.8408 102.189 22.9096 102.189 22.9846H95.2703C95.3203 23.3596 95.4203 23.6846 95.5703 23.9596C95.7328 24.2221 95.9266 24.4471 96.1516 24.6346C96.3891 24.8096 96.6453 24.9408 96.9203 25.0283C97.1953 25.1033 97.4766 25.1408 97.7641 25.1408C98.3266 25.1408 98.7891 25.0158 99.1516 24.7658C99.5266 24.5033 99.8203 24.1783 100.033 23.7908L102.077 24.8033ZM99.8453 21.2408C99.8328 21.0783 99.7766 20.8971 99.6766 20.6971C99.5891 20.4971 99.4516 20.3096 99.2641 20.1346C99.0891 19.9596 98.8641 19.8158 98.5891 19.7033C98.3266 19.5908 98.0078 19.5346 97.6328 19.5346C97.1078 19.5346 96.6453 19.6846 96.2453 19.9846C95.8453 20.2846 95.5641 20.7033 95.4016 21.2408H99.8453Z" fill="white"/>
<path id="Vector_6" d="M86.8711 17.8284H89.1773V19.1034H89.3273C89.4398 18.8784 89.5898 18.6722 89.7773 18.4847C89.9648 18.2972 90.1711 18.1347 90.3961 17.9972C90.6336 17.8597 90.8836 17.7534 91.1461 17.6784C91.4211 17.6034 91.6898 17.5659 91.9523 17.5659C92.2773 17.5659 92.5523 17.5972 92.7773 17.6597C93.0148 17.7222 93.2148 17.8034 93.3773 17.9034L92.7211 20.1347C92.5711 20.0597 92.4023 20.0034 92.2148 19.9659C92.0398 19.9159 91.8211 19.8909 91.5586 19.8909C91.2211 19.8909 90.9148 19.9597 90.6398 20.0972C90.3648 20.2222 90.1273 20.4034 89.9273 20.6409C89.7398 20.8784 89.5898 21.1597 89.4773 21.4847C89.3773 21.7972 89.3273 22.1409 89.3273 22.5159V27.0159H86.8711V17.8284Z" fill="white"/>
<path id="Vector_7" d="M83.023 25.8156H82.873C82.5855 26.2781 82.198 26.6469 81.7105 26.9219C81.223 27.1844 80.6668 27.3156 80.0418 27.3156C78.8793 27.3156 78.0105 26.9594 77.4355 26.2469C76.873 25.5344 76.5918 24.5844 76.5918 23.3969V17.8281H79.048V23.0969C79.048 23.7594 79.1918 24.2531 79.4793 24.5781C79.7793 24.8906 80.2105 25.0469 80.773 25.0469C81.1105 25.0469 81.4043 24.9781 81.6543 24.8406C81.9168 24.6906 82.1355 24.4969 82.3105 24.2594C82.498 24.0094 82.6355 23.7219 82.723 23.3969C82.823 23.0594 82.873 22.7031 82.873 22.3281V17.8281H85.3293V27.0156H83.023V25.8156Z" fill="white"/>
<path id="Vector_8" d="M70.716 19.9281H69.1035V17.8281H70.716V15.0156H73.1723V17.8281H75.4223V19.9281H73.1723V23.4906C73.1723 23.7031 73.191 23.9031 73.2285 24.0906C73.2785 24.2656 73.366 24.4156 73.491 24.5406C73.666 24.7406 73.916 24.8406 74.241 24.8406C74.4535 24.8406 74.6223 24.8219 74.7473 24.7844C74.8723 24.7344 74.991 24.6719 75.1035 24.5969L75.7973 26.7531C75.5098 26.8906 75.1973 26.9906 74.8598 27.0531C74.5348 27.1281 74.1723 27.1656 73.7723 27.1656C73.3098 27.1656 72.891 27.0969 72.516 26.9594C72.1535 26.8094 71.8473 26.6094 71.5973 26.3594C71.0098 25.7969 70.716 24.9969 70.716 23.9594V19.9281Z" fill="white"/>
<path id="Vector_9" d="M65.7643 25.8156H65.6143C65.3268 26.2781 64.9393 26.6469 64.4518 26.9219C63.9643 27.1844 63.408 27.3156 62.783 27.3156C61.6205 27.3156 60.7518 26.9594 60.1768 26.2469C59.6143 25.5344 59.333 24.5844 59.333 23.3969V17.8281H61.7893V23.0969C61.7893 23.7594 61.933 24.2531 62.2205 24.5781C62.5205 24.8906 62.9518 25.0469 63.5143 25.0469C63.8518 25.0469 64.1455 24.9781 64.3955 24.8406C64.658 24.6906 64.8768 24.4969 65.0518 24.2594C65.2393 24.0094 65.3768 23.7219 65.4643 23.3969C65.5643 23.0594 65.6143 22.7031 65.6143 22.3281V17.8281H68.0705V27.0156H65.7643V25.8156Z" fill="white"/>
<path id="Vector_10" d="M50.1816 13.5908H58.6941V15.9908H52.7129V19.2533H58.0941V21.6533H52.7129V27.0158H50.1816V13.5908Z" fill="white"/>
</g>
<g id="Group">
<g id="Group_2">
<g id="Group_3">
<path id="Vector_11" d="M26.666 40.4998V33.8332C30.3549 33.8332 33.3327 30.8554 33.3327 27.1665H39.9993C39.9993 34.5443 34.0216 40.4998 26.666 40.4998Z" fill="#FFD11A"/>
</g>
<g id="Group_4">
<path id="Vector_12" d="M26.6663 40.4998V33.8332C22.9775 33.8332 19.9997 30.8554 19.9997 27.1665H13.333C13.333 34.5443 19.3108 40.4998 26.6663 40.4998Z" fill="#FFD11A"/>
</g>
</g>
<g id="Group_5">
<g id="Group_6">
<path id="Vector_13" d="M0 27.167H6.66667C6.66667 30.8559 9.64444 33.8337 13.3333 33.8337V40.5003C5.97778 40.5003 0 34.5448 0 27.167Z" fill="#FFD11A"/>
</g>
<g id="Group_7">
<path id="Vector_14" d="M0 27.1668H6.66667C6.66667 23.4779 9.64444 20.5002 13.3333 20.5002V13.8335C5.97778 13.8335 0 19.8113 0 27.1668Z" fill="#FFD11A"/>
</g>
</g>
<g id="Group_8">
<g id="Group_9">
<path id="Vector_15" d="M13.3333 0.5V7.16667C9.64444 7.16667 6.66667 10.1444 6.66667 13.8333H0C0 6.47778 5.97778 0.5 13.3333 0.5Z" fill="#FFD11A"/>
</g>
<g id="Group_10">
<path id="Vector_16" d="M13.333 0.5V7.16667C17.0219 7.16667 19.9997 10.1444 19.9997 13.8333H26.6663C26.6663 6.47778 20.6886 0.5 13.333 0.5Z" fill="#FFD11A"/>
</g>
</g>
<g id="Group_11">
<g id="Group_12">
<path id="Vector_17" d="M40.0003 13.8333H33.3337C33.3337 10.1444 30.3559 7.16667 26.667 7.16667V0.5C34.0225 0.5 40.0003 6.47778 40.0003 13.8333Z" fill="#FFD11A"/>
</g>
<g id="Group_13">
<path id="Vector_18" d="M40.0003 13.8335H33.3337C33.3337 17.5224 30.3559 20.5002 26.667 20.5002V27.1668C34.0225 27.1668 40.0003 21.2113 40.0003 13.8335Z" fill="#FFD11A"/>
</g>
</g>
</g>
</g>
</svg>
